<?xml version="1.0" standalone="no"?>
<!DOCTYPE svg PUBLIC "-//W3C//DTD SVG 20010904//EN"
 "http://www.w3.org/TR/2001/REC-SVG-20010904/DTD/svg10.dtd">
<svg version="1.0" xmlns="http://www.w3.org/2000/svg"
 width="1024.000000pt" height="1024.000000pt" viewBox="0 0 1024.000000 1024.000000"
 preserveAspectRatio="xMidYMid meet">
<metadata>
Created by potrace 1.14, written by Peter Selinger 2001-2017
</metadata>
<g transform="translate(0.000000,1024.000000) scale(0.100000,-0.100000)"
fill="#000000" stroke="none">
<path d="M811 9188 c-105 -18 -220 -99 -284 -200 -67 -104 -66 -85 -64 -978 2
-656 5 -811 16 -835 7 -16 22 -50 33 -74 41 -88 173 -196 263 -215 17 -3 41
-9 55 -11 29 -6 1932 -7 1970 -1 130 20 246 99 311 211 62 108 61 83 61 940 0
429 -3 795 -6 813 -24 128 -112 248 -225 306 -100 52 -41 50 -1101 51 -542 1
-1005 -2 -1029 -7z"/>
<path d="M4095 9185 c-72 -17 -148 -58 -204 -113 -70 -67 -104 -128 -127 -223
-4 -13 -7 -375 -8 -804 -1 -707 0 -786 16 -847 44 -174 181 -299 354 -323 27
-4 486 -7 1019 -6 1079 0 1013 -4 1121 67 130 86 196 179 212 300 4 33 7 403
7 824 -1 703 -3 770 -19 825 -41 136 -154 248 -301 298 -45 15 -2004 17 -2070
2z"/>
<path d="M7421 9188 c-75 -13 -164 -62 -224 -122 -68 -67 -101 -128 -123 -227
-3 -13 -6 -377 -6 -809 0 -846 -1 -826 52 -930 12 -24 45 -68 73 -97 72 -77
144 -113 257 -129 47 -7 1895 -6 1955 1 127 15 265 112 322 225 53 106 53 104
53 941 -1 839 -1 835 -55 930 -48 85 -139 163 -232 200 l-58 23 -985 1 c-542
1 -1005 -2 -1029 -7z"/>
<path d="M860 6282 c-51 -3 -119 -22 -164 -45 -56 -27 -141 -111 -176 -172
-60 -104 -59 -87 -59 -947 0 -843 -1 -830 50 -930 30 -60 122 -151 182 -181
105 -53 101 -52 1148 -51 953 1 975 2 1030 22 157 57 266 181 295 336 7 41 8
1538 0 1597 -16 128 -110 264 -220 321 -104 53 -67 51 -1096 52 -525 1 -971 0
-990 -2z"/>
<path d="M4186 6283 c-1 -1 -22 -3 -46 -4 -132 -7 -272 -105 -338 -235 -45
-90 -47 -125 -46 -935 1 -420 4 -782 7 -803 25 -160 189 -318 357 -343 30 -5
489 -8 1020 -8 896 1 969 2 1025 19 33 10 79 29 103 43 100 59 187 181 209
293 8 43 9 1590 1 1620 -33 115 -55 157 -121 224 -57 57 -112 91 -183 112 -54
16 -134 18 -1022 19 -530 0 -964 -1 -966 -2z"/>
<path d="M7460 6282 c-182 -20 -333 -151 -380 -332 -9 -32 -12 -259 -12 -831
0 -713 1 -791 17 -845 40 -140 141 -244 284 -296 55 -20 76 -21 1040 -22 1056
-1 1032 -2 1136 50 89 46 167 132 207 232 l23 57 2 790 c1 435 -2 814 -7 843
-13 78 -52 155 -111 217 -61 64 -112 96 -194 121 -56 17 -127 18 -1020 18
-528 1 -971 0 -985 -2z"/>
<path d="M917 3374 c-1 -1 -32 -4 -68 -7 -171 -14 -323 -144 -371 -315 -17
-63 -18 -113 -15 -867 3 -874 0 -831 63 -931 62 -100 147 -163 259 -196 77
-23 2018 -18 2086 5 142 48 271 195 294 336 7 44 9 1582 2 1611 -2 8 -7 29
-11 45 -14 55 -58 130 -110 183 -84 88 -177 128 -308 131 -84 3 -1818 7 -1821
5z"/>
<path d="M4277 3373 c-1 -1 -40 -3 -87 -4 -130 -3 -217 -39 -304 -125 -65 -65
-116 -163 -125 -241 -3 -32 -6 -400 -6 -818 1 -817 1 -820 53 -913 34 -61 125
-152 182 -181 93 -48 101 -48 1155 -46 1094 2 1036 -2 1138 66 99 65 181 192
196 301 3 29 6 399 5 823 0 586 -4 781 -13 815 -27 96 -105 201 -190 255 -79
49 -136 63 -277 65 -190 2 -1725 5 -1727 3z"/>
<path d="M7517 3373 c-1 -1 -24 -2 -52 -4 -172 -9 -330 -140 -381 -316 -14
-48 -16 -150 -15 -836 0 -430 2 -793 5 -807 34 -173 142 -296 311 -353 38 -13
1943 -18 2033 -6 144 20 282 136 338 284 18 47 19 93 21 845 2 691 1 804 -13
862 -34 148 -160 275 -314 317 -35 9 -279 13 -989 14 -518 1 -943 1 -944 0z"/>
</g>
</svg>
